<?xml version="1.0" standalone="no"?>
<!DOCTYPE svg PUBLIC "-//W3C//DTD SVG 20010904//EN"
 "http://www.w3.org/TR/2001/REC-SVG-20010904/DTD/svg10.dtd">
<svg version="1.0" xmlns="http://www.w3.org/2000/svg"
 width="1000.000000pt" height="1000.000000pt" viewBox="0 0 1000.000000 1000.000000"
 preserveAspectRatio="xMidYMid meet">
<metadata>
Created by potrace 1.11, written by Peter Selinger 2001-2013
</metadata>
<g transform="translate(0.000000,1000.000000) scale(0.100000,-0.100000)"
fill="#000000" stroke="none">
<path d="M4605 9900 c-11 -5 -87 -23 -170 -40 -213 -44 -198 -33 -190 -135 l7
-85 -64 -29 c-37 -17 -99 -34 -148 -41 -47 -7 -107 -21 -135 -31 -27 -11 -64
-19 -81 -19 -17 0 -139 -31 -271 -70 -132 -38 -280 -79 -329 -91 -71 -18 -96
-30 -129 -59 -22 -21 -64 -49 -93 -64 -34 -17 -56 -36 -63 -52 -8 -22 -12 -24
-24 -14 -8 7 -15 22 -15 34 0 46 -107 176 -144 176 -7 0 -66 -27 -131 -60 -65
-33 -126 -60 -135 -60 -19 0 -43 -25 -53 -53 -6 -15 -13 -17 -36 -12 -17 4
-32 2 -36 -5 -14 -22 -7 -76 15 -113 26 -44 23 -66 -20 -134 -17 -26 -30 -59
-30 -74 0 -50 -20 -73 -113 -132 -266 -168 -333 -215 -359 -253 -14 -21 -82
-94 -151 -161 -96 -95 -130 -123 -150 -123 -15 0 -67 18 -117 40 -71 33 -94
39 -109 30 -29 -15 -170 -175 -220 -248 -31 -47 -50 -64 -72 -69 -16 -3 -29
-8 -29 -12 0 -37 31 -92 81 -148 55 -61 60 -69 57 -107 -3 -35 -9 -45 -40 -65
-28 -18 -42 -36 -53 -72 -9 -26 -31 -67 -49 -91 -18 -24 -42 -59 -53 -78 -23
-39 -224 -504 -242 -562 -14 -43 -44 -68 -81 -68 -86 0 -153 -53 -214 -168
-28 -55 -76 -206 -76 -244 0 -4 27 -37 60 -74 64 -70 68 -82 46 -117 -7 -12
-17 -53 -20 -92 -4 -38 -13 -90 -21 -115 -25 -80 -71 -601 -68 -780 1 -58 9
-158 17 -223 21 -153 18 -158 -80 -172 -112 -17 -128 -47 -123 -227 l4 -116
96 -93 97 -94 22 -100 c37 -165 86 -327 178 -584 75 -211 92 -250 127 -290 24
-27 73 -110 117 -201 42 -85 94 -182 116 -214 47 -69 47 -67 -32 -146 -31 -30
-56 -61 -56 -69 0 -8 18 -37 39 -65 46 -60 65 -104 75 -171 8 -50 59 -189 78
-213 21 -25 60 -13 102 33 37 40 47 45 85 45 78 0 104 -24 306 -280 131 -166
262 -300 420 -429 132 -109 158 -141 112 -141 -45 0 -44 -31 3 -55 25 -13 29
-12 45 5 23 26 56 25 90 -1 30 -24 29 -28 -4 -119 -11 -30 -20 -79 -21 -107 0
-51 1 -53 52 -93 59 -47 74 -56 223 -125 61 -28 147 -72 192 -98 45 -26 91
-47 101 -47 11 0 32 17 48 38 41 54 74 82 96 82 11 0 135 -58 276 -129 153
-77 287 -138 331 -150 90 -25 101 -34 76 -61 -14 -15 -15 -23 -6 -34 23 -28
622 -176 713 -176 18 0 39 -4 46 -9 7 -4 38 -58 67 -120 30 -61 57 -111 61
-111 4 0 16 8 26 17 23 21 63 22 193 3 55 -7 111 -14 125 -13 14 0 68 24 120
54 l95 55 12 53 c6 30 17 59 25 66 16 15 136 35 207 35 33 0 62 -7 86 -21 26
-16 45 -20 73 -15 119 19 116 19 136 -3 12 -13 31 -21 52 -21 19 0 147 29 286
64 278 71 317 79 462 101 123 18 148 10 194 -62 27 -43 31 -55 23 -77 -9 -21
-7 -27 9 -36 10 -5 32 -10 47 -10 57 0 418 125 456 158 27 24 21 50 -17 66
-19 8 -37 22 -40 33 -13 47 -26 146 -21 163 8 26 161 120 304 187 142 68 224
123 240 161 15 35 65 73 209 156 169 98 286 189 566 444 74 67 146 127 158
133 19 8 43 4 121 -21 58 -18 103 -28 111 -23 32 18 198 170 242 220 56 65 75
114 65 163 -7 33 -9 35 -44 32 -28 -3 -45 3 -74 25 -46 34 -62 53 -63 73 0 8
41 83 90 165 99 163 292 540 360 700 24 55 69 170 102 255 33 85 64 160 70
167 7 9 38 13 93 13 64 0 87 4 103 18 37 31 113 328 116 451 l1 54 -40 14
c-22 7 -57 30 -78 51 l-39 37 6 125 c7 131 26 341 51 545 8 66 17 163 20 215
12 194 27 326 41 347 8 13 35 28 68 37 64 19 81 41 73 95 -3 20 -13 85 -21
145 -13 89 -23 121 -54 177 -20 38 -40 69 -44 69 -3 0 -10 -17 -15 -37 -10
-44 -29 -50 -92 -33 -41 11 -41 11 -41 60 0 34 -32 154 -105 392 -58 189 -115
381 -127 427 -21 82 -21 85 -3 95 10 6 27 20 37 31 109 119 121 150 58 150
l-35 0 -27 85 c-16 47 -49 128 -75 180 -56 112 -67 117 -169 76 -104 -42 -102
-43 -153 83 -32 79 -199 305 -399 538 -215 252 -257 309 -244 330 4 5 26 22
50 37 25 16 42 34 42 45 0 20 -322 340 -394 393 -53 38 -81 37 -92 -3 -5 -18
-17 -37 -27 -43 -21 -13 -29 -9 -552 274 -490 266 -494 268 -598 287 -49 9
-97 23 -108 32 -18 15 -18 19 -4 76 16 68 19 124 6 143 -4 8 -37 22 -72 32
-35 10 -111 35 -169 54 -58 19 -125 41 -150 48 -40 12 -46 17 -56 53 -6 22
-15 38 -20 36 -56 -24 -75 -38 -80 -61 -11 -50 -27 -82 -50 -96 -20 -14 -27
-13 -71 10 -27 13 -76 32 -108 41 -116 32 -125 36 -140 65 l-14 28 -458 -4
c-252 -1 -476 -4 -498 -6 l-40 -3 -23 64 c-12 36 -28 71 -34 78 -12 15 -43 16
-73 3z m99 -166 c4 -9 4 -19 2 -21 -8 -8 -26 8 -26 23 0 19 16 18 24 -2z
m-374 -96 c0 -21 -4 -38 -10 -38 -5 0 -10 18 -10 39 0 22 -3 48 -6 58 -5 16
-4 16 10 -1 9 -11 16 -37 16 -58z m695 -348 c-3 -5 -42 -10 -86 -10 -46 0 -79
4 -79 10 0 6 35 10 86 10 54 0 83 -4 79 -10z m160 0 c4 -6 -8 -10 -30 -10 -22
0 -34 4 -30 10 3 6 17 10 30 10 13 0 27 -4 30 -10z m-520 -91 c9 -14 -3 -59
-15 -59 -5 0 -12 11 -16 24 -6 26 1 46 16 46 5 0 12 -5 15 -11z m638 -1 c-17
-8 -29 -8 -45 0 -20 9 -18 11 22 11 40 0 42 -2 23 -11z m-303 -2 c0 -11 -146
-27 -190 -21 -89 12 -53 25 70 25 66 0 120 -2 120 -4z m-432 -15 c7 -4 18 -26
23 -47 12 -50 33 -410 34 -574 0 -120 1 -127 27 -160 14 -19 28 -48 30 -65 l3
-30 -135 -27 c-74 -15 -173 -32 -220 -38 -78 -11 -133 -30 -84 -30 52 0 652
104 662 115 3 3 -6 5 -19 5 -47 0 -50 10 -33 91 22 100 13 374 -16 548 -13 72
-18 127 -13 132 15 15 194 23 239 10 37 -10 43 -15 49 -49 3 -20 13 -47 20
-58 8 -12 15 -46 17 -75 l3 -54 25 40 c25 39 31 104 19 185 -4 22 0 25 41 32
25 3 89 7 143 7 86 1 99 -1 118 -20 17 -17 20 -29 15 -60 -5 -29 0 -48 19 -85
14 -26 25 -61 25 -78 0 -27 2 -29 15 -16 8 8 20 51 26 95 14 98 30 127 67 123
15 -1 55 1 89 6 50 6 74 4 130 -13 37 -12 87 -26 111 -32 l44 -10 -7 -42 c-4
-23 -14 -62 -22 -86 -15 -44 -11 -105 7 -116 6 -4 13 2 17 12 3 10 17 42 29
71 23 52 24 53 45 38 21 -14 23 -13 38 17 12 24 24 33 46 35 17 1 57 10 90 18
41 11 60 13 63 5 10 -31 46 -54 132 -85 l95 -34 1 -43 c1 -24 2 -74 3 -111 1
-50 5 -68 14 -68 17 0 34 35 42 87 12 73 15 81 36 86 46 12 337 -102 357 -140
6 -11 8 -60 5 -121 -5 -89 -4 -102 10 -102 9 0 18 8 21 18 4 10 20 40 36 66
24 37 35 47 53 44 19 -3 22 -9 21 -43 -1 -22 -8 -62 -17 -88 -22 -64 -4 -50
29 23 15 34 35 62 46 66 12 4 42 -8 86 -34 37 -22 100 -56 140 -76 41 -21 88
-52 106 -69 18 -18 45 -42 61 -54 l29 -21 -42 -62 c-63 -95 -52 -128 26 -75
20 14 46 25 58 25 11 0 29 9 39 20 10 11 24 20 30 20 7 0 38 -29 70 -65 45
-52 53 -66 40 -71 -8 -4 -23 0 -33 8 -9 8 -24 18 -32 22 -8 4 1 -5 20 -21 54
-44 130 -115 130 -123 0 -3 -18 -17 -41 -29 -33 -19 -40 -27 -37 -49 l3 -27
85 2 c47 1 104 5 128 8 30 5 42 4 42 -5 0 -8 -8 -10 -20 -7 -20 5 -19 3 6 -41
34 -58 94 -150 173 -265 34 -49 61 -97 61 -107 0 -10 -20 -36 -45 -58 -32 -28
-45 -47 -45 -66 0 -33 11 -33 78 5 30 17 60 28 66 26 14 -6 77 -108 125 -206
18 -34 35 -61 37 -58 3 3 -18 51 -47 107 -33 65 -49 104 -43 110 15 15 51 -29
146 -180 90 -143 101 -167 86 -194 -7 -13 -13 -14 -29 -6 -22 12 -39 6 -39
-15 0 -7 -16 -22 -35 -34 -43 -25 -47 -58 -9 -67 37 -9 94 2 126 26 15 11 33
20 41 20 32 0 73 -76 123 -224 37 -109 42 -157 19 -176 -12 -10 -15 -7 -21 14
-3 14 -10 26 -15 26 -5 0 -15 11 -21 25 -17 39 -38 32 -35 -12 2 -34 -1 -40
-33 -55 -19 -9 -96 -33 -170 -53 -74 -21 -143 -41 -153 -47 -43 -23 -2 -16
114 18 183 54 253 72 262 67 15 -9 6 -43 -13 -53 -25 -14 -17 -30 15 -30 13 0
30 -6 38 -14 18 -19 67 -169 107 -333 31 -124 50 -171 50 -125 0 12 4 22 9 22
14 0 21 -39 21 -112 l0 -68 -75 -2 c-41 -1 -83 -2 -92 -2 -23 -1 -30 42 -9 50
22 8 20 21 -4 29 -29 9 -25 49 8 74 15 12 20 21 12 19 -42 -6 -58 12 -64 70
-4 31 -16 85 -27 120 -17 49 -25 62 -41 62 -20 0 -19 -2 6 -25 29 -27 35 -70
13 -99 -8 -11 -65 -33 -148 -56 -73 -22 -125 -39 -113 -39 11 -1 69 13 127 29
59 17 116 30 126 30 22 0 31 -19 31 -67 0 -31 -4 -36 -38 -50 -34 -13 -38 -18
-34 -40 3 -15 18 -33 38 -45 75 -44 31 -67 -146 -75 -145 -7 -170 -13 -170
-45 0 -13 -5 -30 -11 -38 -9 -13 -12 -13 -22 3 -35 54 -39 54 -33 3 3 -27 6
-62 6 -78 l0 -30 205 3 c174 3 207 1 221 -12 11 -12 16 -49 21 -157 l6 -142
-26 0 c-37 0 -41 -15 -11 -35 21 -14 24 -19 13 -26 -8 -5 -27 -9 -43 -9 -25 0
-27 -3 -21 -22 10 -29 8 -121 -5 -218 -5 -41 -14 -115 -20 -165 -5 -49 -13
-107 -16 -128 -5 -24 -3 -37 5 -37 6 0 11 16 11 36 0 19 5 44 10 55 12 21 49
26 51 7 8 -94 -46 -301 -169 -645 -58 -163 -50 -197 12 -50 59 140 100 267
141 443 20 87 42 177 49 199 l11 40 53 -1 c37 -1 60 -8 75 -21 12 -11 30 -23
40 -26 10 -4 17 -17 17 -31 0 -19 7 -26 30 -31 27 -6 30 -10 30 -46 0 -52 -56
-284 -74 -311 -8 -11 -28 -29 -45 -39 -17 -10 -31 -23 -31 -28 0 -15 78 -41
123 -41 68 0 70 -4 62 -116 -7 -84 -14 -113 -52 -204 -51 -122 -97 -175 -141
-167 -15 3 -45 8 -66 13 -32 6 -41 4 -52 -11 -17 -23 -18 -61 -2 -71 7 -4 28
-10 48 -14 20 -3 36 -12 38 -20 8 -42 -171 -309 -249 -371 l-42 -33 34 -14
c53 -21 61 -37 42 -84 -20 -51 -149 -294 -176 -332 -16 -23 -25 -27 -51 -23
-32 5 -98 -20 -100 -38 0 -5 11 -16 25 -22 52 -25 52 -34 -3 -122 -29 -45 -66
-99 -83 -119 -32 -36 -32 -36 -59 -19 l-27 18 7 -26 c6 -23 -1 -34 -46 -76
-42 -40 -55 -47 -70 -39 -26 14 -60 12 -60 -2 1 -7 7 -24 15 -38 29 -51 20
-74 -62 -162 -43 -46 -97 -104 -119 -131 -50 -57 -78 -61 -129 -16 -34 30 -65
34 -65 7 0 -7 16 -33 36 -58 33 -41 34 -45 18 -57 -10 -7 -23 -13 -29 -13 -7
0 -20 -18 -30 -39 -9 -21 -36 -57 -59 -78 -47 -46 -135 -113 -147 -113 -4 0
-34 18 -65 40 -32 22 -63 40 -71 40 -24 0 -14 -41 17 -67 51 -43 42 -65 -52
-123 -99 -61 -328 -175 -380 -189 -35 -9 -40 -7 -82 30 -67 60 -103 45 -55
-22 36 -51 21 -75 -77 -120 -106 -49 -254 -109 -269 -109 -6 0 -20 16 -31 36
-30 58 -48 64 -84 29 -24 -23 -30 -37 -30 -72 0 -24 -1 -43 -3 -43 -1 0 -49
-13 -107 -30 -58 -16 -119 -30 -137 -30 -28 0 -32 4 -45 42 -9 31 -18 43 -32
43 -20 0 -21 -1 -54 -77 -15 -33 -29 -49 -44 -52 -125 -23 -418 -54 -602 -62
l-149 -7 8 77 c7 77 7 78 -17 74 -19 -2 -27 -16 -48 -76 -14 -41 -32 -78 -40
-82 -24 -13 -423 9 -438 24 -10 9 -10 19 -2 40 17 45 13 86 -8 86 -14 0 -26
-17 -43 -63 l-25 -62 -40 3 c-107 8 -283 45 -446 93 -67 20 -68 20 -68 55 0
21 10 50 25 72 27 39 33 76 13 70 -7 -3 -35 -36 -63 -76 -47 -66 -53 -71 -88
-71 -25 -1 -86 20 -187 65 -165 73 -169 77 -130 142 45 73 16 82 -51 16 l-48
-47 -58 23 c-101 40 -231 110 -274 149 l-42 37 31 32 c47 48 39 102 -14 102
-16 0 -25 -9 -33 -32 -13 -36 -39 -68 -55 -68 -6 0 -43 26 -82 58 -39 32 -105
79 -147 106 -43 26 -77 52 -77 58 0 6 19 31 42 56 l41 45 -27 24 c-28 23 -56
31 -56 14 0 -6 -13 -18 -29 -27 -16 -10 -32 -26 -34 -36 -8 -30 -41 -21 -108
32 -35 27 -103 80 -152 117 -51 39 -87 74 -87 84 0 19 57 59 84 59 13 0 12 7
-10 40 -30 46 -31 46 -56 23 -16 -15 -20 -15 -35 0 -35 30 -233 146 -264 152
-27 6 -30 10 -24 33 3 15 21 42 38 60 25 26 29 36 21 50 -18 29 -38 25 -86
-18 -25 -22 -55 -40 -65 -40 -42 0 -131 82 -209 192 -59 83 -64 98 -35 98 34
0 50 -11 72 -50 14 -24 37 -45 66 -59 25 -12 47 -20 50 -18 4 5 -17 45 -101
186 -32 55 -56 107 -56 123 0 20 -7 32 -22 39 -13 6 -47 40 -77 75 -78 91 -92
83 -46 -26 14 -33 25 -64 25 -70 0 -44 -87 60 -156 185 -31 56 -35 71 -26 86
18 29 15 37 -26 58 -35 18 -62 54 -62 85 0 7 35 29 78 48 121 55 133 85 26 68
-32 -6 -78 -10 -101 -10 l-42 0 -69 123 c-55 95 -152 302 -152 323 0 7 75 54
87 54 7 0 10 -6 7 -13 -8 -22 22 -40 56 -32 35 8 90 50 90 70 0 7 -16 16 -35
19 -21 4 -35 13 -35 21 0 20 -9 19 -74 -6 -44 -16 -60 -18 -76 -9 -18 10 -22
8 -27 -9 -3 -12 -8 -21 -12 -21 -3 0 -19 40 -34 89 -15 50 -47 137 -72 195
-48 112 -58 170 -29 164 11 -2 21 -21 29 -51 7 -26 15 -50 18 -53 18 -18 24
18 21 127 -2 104 -5 124 -22 142 -14 16 -26 58 -41 155 -12 72 -31 158 -42
189 -10 31 -24 96 -31 145 -10 76 -10 91 3 98 8 5 68 7 134 4 l120 -5 -24 20
c-27 24 -101 47 -183 56 l-58 6 0 89 c0 160 19 342 39 370 17 23 22 24 112 22
164 -4 211 29 57 40 -126 9 -148 18 -148 61 0 19 9 61 20 95 17 51 18 65 8 82
-11 18 -10 23 8 38 15 12 25 38 33 82 7 36 21 93 33 128 l20 63 42 -6 c22 -4
60 -15 82 -25 67 -29 75 -9 18 44 -27 25 -52 46 -56 46 -5 0 -17 9 -28 20 -28
28 -28 121 0 161 17 23 19 33 10 49 -9 17 -2 45 40 158 29 75 59 145 67 155
17 18 43 23 43 7 0 -6 9 -6 23 -1 17 7 46 1 107 -20 86 -30 120 -36 120 -20 0
14 -22 29 -55 37 -38 9 -145 84 -145 100 0 7 5 16 10 19 6 3 10 22 10 41 0 20
15 65 36 105 39 79 35 77 126 42 55 -21 66 -15 75 42 6 36 5 38 -17 32 -14 -4
-43 2 -72 15 -41 18 -48 24 -48 49 0 85 149 359 196 359 7 0 36 -20 64 -45 29
-26 61 -45 74 -45 29 0 59 32 50 54 -10 26 3 58 41 100 19 22 35 48 35 58 0
37 44 104 114 174 95 95 114 106 154 94 l33 -9 -7 34 c-3 18 -3 43 1 55 12 38
211 257 240 264 27 7 79 -17 105 -49 11 -14 15 -14 31 1 26 23 24 28 -17 74
l-37 40 18 48 c21 56 100 137 176 181 75 43 89 41 144 -24 44 -51 73 -71 62
-42 -23 61 -14 75 26 40 19 -17 20 -17 9 3 -6 11 -29 33 -51 49 -23 15 -41 31
-41 34 0 27 150 125 248 161 30 11 66 30 79 40 30 23 57 13 67 -24 9 -38 34
-56 75 -56 29 0 43 -6 54 -22 14 -20 16 -21 16 -5 1 10 -10 33 -24 51 -14 18
-25 42 -25 54 0 18 -4 21 -29 16 -38 -8 -46 16 -18 53 28 37 34 41 82 54 22 6
59 22 82 36 29 17 54 24 80 22 21 -2 43 0 49 4 17 10 54 -4 54 -22 0 -26 -13
-38 -58 -56 -23 -10 -42 -23 -42 -31 0 -18 8 -17 59 1 41 14 42 14 75 -15 43
-38 54 -38 62 4 7 41 27 51 134 66 208 29 324 53 485 100 38 11 86 20 106 20
29 0 38 5 47 25 7 14 12 37 12 50 0 20 6 25 38 30 20 4 42 8 47 10 18 6 30 5
43 -4z m1205 -22 c52 -14 46 -29 -10 -29 -58 0 -126 18 -118 31 8 12 81 11
128 -2z m-1753 -30 c0 -4 -8 -12 -17 -17 -33 -16 -174 -54 -180 -48 -10 10
156 84 177 79 11 -3 20 -9 20 -14z m338 12 c30 -19 -131 -71 -220 -71 -33 0
-38 3 -29 13 12 16 103 44 176 56 28 5 52 9 55 10 3 0 11 -3 18 -8z m-598 -61
c0 -14 -87 -62 -107 -58 -10 2 -18 12 -18 23 0 16 11 22 50 31 65 15 75 16 75
4z m270 -10 c0 -18 -58 -40 -102 -39 l-43 1 70 23 c39 13 71 24 73 24 1 1 2
-3 2 -9z m4250 -665 c0 -17 -35 -55 -50 -55 -19 0 -10 39 12 54 28 20 38 20
38 1z m-6087 -206 c-25 -43 -116 -126 -121 -111 -8 25 91 142 120 142 19 0 19
-1 1 -31z m-153 -218 c0 -16 -111 -131 -126 -131 -17 0 -18 14 -2 43 6 12 11
33 12 47 1 19 9 28 36 37 43 15 80 16 80 4z m-170 -111 c0 -38 -51 -153 -102
-231 -29 -44 -56 -79 -60 -79 -4 0 -20 18 -34 40 l-26 39 67 88 c74 96 135
163 147 163 4 0 8 -9 8 -20z m6464 -181 c19 -23 54 -73 77 -111 39 -67 45 -94
15 -69 -22 18 -166 218 -166 230 0 19 35 -5 74 -50z m-7164 -319 c0 -8 -50
-24 -56 -17 -2 2 4 13 12 26 13 17 19 20 30 10 8 -6 14 -15 14 -19z m-736
-874 c-3 -14 -10 -23 -15 -21 -4 3 -3 17 3 30 14 31 21 26 12 -9z m8536 -132
c15 -39 12 -49 -10 -29 -21 19 -27 55 -10 55 6 0 15 -12 20 -26z m-5 -109 c7
-18 6 -19 -9 -4 -9 8 -19 33 -22 55 l-5 39 14 -35 c8 -19 18 -44 22 -55z m51
-160 c16 -39 19 -64 5 -49 -10 10 -32 84 -25 84 3 0 12 -16 20 -35z m-176
-255 c0 -4 -6 -13 -14 -19 -17 -14 -31 2 -22 24 5 15 36 10 36 -5z m365 -344
c21 -71 12 -104 -31 -122 -18 -8 -43 -14 -54 -14 -23 0 -26 -10 -7 -29 10 -10
6 -17 -18 -37 -73 -61 -168 -85 -179 -46 -2 9 -8 75 -12 146 -8 148 -9 146 75
146 59 0 138 31 148 58 10 25 60 -40 78 -102z m-17 -331 c10 -30 11 -49 3 -76
-16 -53 -56 -69 -169 -69 -107 0 -119 8 -106 73 9 42 10 42 71 57 84 21 87 28
11 27 -35 -1 -64 2 -66 8 -3 13 73 23 168 21 l75 -1 13 -40z m56 29 c13 -33 6
-261 -10 -341 -15 -76 -25 -96 -37 -75 -3 4 1 59 9 122 7 63 13 159 14 213 0
90 9 120 24 81z m-382 -156 c-6 -6 -15 -7 -21 -4 -17 11 -13 48 7 76 l17 25 3
-44 c2 -24 -1 -48 -6 -53z m292 -44 c12 -4 16 -19 16 -53 -1 -86 -19 -196 -35
-207 -19 -14 -204 -29 -234 -19 -18 5 -21 14 -21 55 0 72 13 80 126 80 75 0
96 -3 100 -15 11 -27 21 -16 31 35 6 28 9 50 7 50 -2 0 -19 -10 -39 -21 -32
-19 -46 -21 -112 -15 -41 3 -79 8 -84 12 -12 7 -11 55 0 73 12 19 210 38 245
25z m-284 -29 c18 -21 -16 -61 -37 -44 -14 12 -18 41 -6 52 11 12 30 8 43 -8z
m-22 -162 c-6 -64 -18 -81 -42 -57 -13 13 -15 26 -10 63 8 58 10 60 35 54 19
-5 21 -11 17 -60z m346 -258 c3 -8 -4 -68 -14 -132 -11 -65 -20 -125 -20 -133
0 -29 19 12 30 67 6 28 18 57 27 65 14 11 15 10 10 -7 -8 -24 -47 -202 -47
-211 0 -4 -8 0 -19 10 -10 9 -25 14 -35 10 -13 -5 -16 0 -16 27 1 62 38 290
50 305 16 18 26 18 34 -1z m91 -1060 c0 -10 -6 -20 -12 -22 -8 -3 -13 5 -13
22 0 17 5 25 13 23 6 -3 12 -13 12 -23z m-335 -61 c-18 -21 -24 -10 -9 18 8
14 14 18 17 10 2 -7 -2 -19 -8 -28z m-126 -271 c-28 -21 -35 -4 -11 29 21 29
22 29 25 7 2 -13 -3 -28 -14 -36z m-394 -843 c0 -19 -36 -60 -52 -60 -13 0
-10 12 12 48 22 36 40 42 40 12z m-6320 -240 c44 -22 87 -51 95 -64 22 -32 24
-79 5 -83 -22 -4 -142 89 -173 135 -46 66 -37 67 73 12z m6031 -296 c10 -13
10 -17 -1 -24 -26 -16 -54 12 -33 33 10 11 19 8 34 -9z m-5362 -880 c-13 -14
-25 -20 -27 -14 -5 15 17 40 36 40 12 0 10 -6 -9 -26z m3448 -171 c-3 -10 -5
-4 -5 12 0 17 2 24 5 18 2 -7 2 -21 0 -30z m337 -259 c30 -54 31 -55 12 -48
-17 7 -40 39 -50 72 -13 39 11 24 38 -24z"/>
<path d="M5682 9048 c-16 -39 -53 -200 -47 -206 10 -10 17 7 41 103 25 98 28
157 6 103z"/>
<path d="M4088 8835 c-9 -15 12 -199 24 -210 7 -7 9 15 4 75 -7 92 -19 150
-28 135z"/>
<path d="M5374 8785 c11 -8 36 -15 55 -15 34 1 35 2 17 15 -11 8 -36 15 -55
15 -34 -1 -35 -2 -17 -15z"/>
<path d="M4246 8715 c5 -38 9 -90 9 -114 l0 -44 -87 -21 c-48 -12 -90 -25 -94
-29 -17 -17 10 -18 70 -3 36 9 81 16 101 16 20 0 49 7 66 15 16 9 65 18 109
22 52 4 79 10 77 17 -3 7 -36 10 -98 7 -76 -2 -97 0 -108 12 -7 9 -19 53 -27
98 -18 103 -29 118 -18 24z"/>
<path d="M3925 8638 c4 -13 13 -30 21 -38 12 -12 14 -12 14 5 -1 21 -22 55
-34 55 -4 0 -4 -10 -1 -22z"/>
<path d="M2931 8593 c2 -21 38 -86 38 -70 1 10 -6 31 -14 47 -15 29 -26 39
-24 23z"/>
<path d="M3050 8589 c0 -8 7 -24 16 -35 14 -18 15 -18 8 6 -8 31 -24 50 -24
29z"/>
<path d="M6326 8561 c16 -17 235 -111 257 -111 34 0 10 14 -116 69 -112 48
-163 63 -141 42z"/>
<path d="M5025 8540 c3 -5 11 -10 16 -10 6 0 7 5 4 10 -3 6 -11 10 -16 10 -6
0 -7 -4 -4 -10z"/>
<path d="M2980 8472 c0 -11 115 -250 126 -261 2 -2 6 -2 9 0 6 6 -103 240
-121 259 -10 10 -14 11 -14 2z"/>
<path d="M3801 8447 c-87 -38 -112 -69 -29 -36 29 12 60 24 68 27 8 3 26 14
39 24 36 27 5 21 -78 -15z"/>
<path d="M7101 8344 c-12 -27 -11 -28 4 -12 10 9 16 21 13 28 -2 7 -10 -1 -17
-16z"/>
<path d="M7319 8329 c13 -11 26 -17 29 -14 7 6 -29 34 -43 34 -5 0 1 -9 14
-20z"/>
<path d="M6890 8244 c0 -21 57 -76 107 -104 32 -18 68 -40 81 -48 12 -8 22
-10 22 -6 0 5 -18 20 -40 34 -22 14 -41 30 -41 37 -1 7 -2 18 -3 25 0 7 -16
15 -35 19 -18 4 -46 17 -62 28 -16 12 -29 19 -29 15z"/>
<path d="M7437 8213 c15 -23 18 -24 21 -9 2 10 -2 22 -10 27 -24 16 -29 9 -11
-18z"/>
<path d="M2950 8176 c0 -8 7 -16 15 -20 13 -4 14 -2 5 14 -13 23 -20 26 -20 6z"/>
<path d="M4050 8121 c-152 -51 -291 -113 -312 -139 -11 -13 -10 -15 2 -10 8 4
116 47 239 97 123 50 226 93 229 96 11 11 -16 3 -158 -44z"/>
<path d="M3134 8062 c-70 -46 -302 -214 -431 -313 -98 -75 -169 -146 -158
-157 4 -4 23 11 44 34 20 23 70 66 111 97 41 31 109 84 150 117 41 33 91 67
110 77 53 24 140 85 195 136 28 26 47 46 44 47 -3 0 -32 -17 -65 -38z"/>
<path d="M7150 8053 c0 -5 49 -45 110 -91 60 -46 151 -122 202 -170 51 -48
107 -97 124 -109 43 -30 71 -95 56 -128 -13 -28 -2 -34 18 -10 14 16 40 20 40
6 0 -5 46 -67 102 -137 183 -231 343 -438 375 -484 33 -48 73 -89 73 -74 0 18
-46 83 -72 104 -16 12 -28 28 -28 37 0 29 -322 448 -376 490 -42 32 -47 68 -8
59 l26 -7 -24 32 c-12 17 -27 37 -33 44 -6 9 -1 30 15 64 13 28 21 53 19 56
-3 3 -20 -15 -37 -40 -17 -25 -37 -45 -43 -45 -7 0 -50 35 -96 78 -47 42 -117
101 -157 131 -39 29 -100 77 -136 106 -66 53 -150 102 -150 88z"/>
<path d="M3246 7754 c-10 -14 -15 -28 -13 -31 3 -2 13 7 23 21 9 15 14 29 12
32 -3 2 -13 -7 -22 -22z"/>
<path d="M3179 7658 c-8 -7 -21 -22 -29 -33 -8 -11 0 -7 18 9 18 17 32 31 32
33 0 6 -6 3 -21 -9z"/>
<path d="M2111 7613 c61 -66 79 -76 79 -45 0 16 -84 82 -105 82 -5 0 7 -17 26
-37z"/>
<path d="M3072 7528 c-18 -22 -30 -43 -27 -46 5 -6 74 68 75 81 1 16 -17 4
-48 -35z"/>
<path d="M2285 7460 c21 -24 26 -25 19 -6 -3 8 -13 17 -22 21 -13 5 -13 2 3
-15z"/>
<path d="M2952 7397 c-32 -33 -43 -60 -19 -52 15 6 62 74 55 80 -2 3 -19 -10
-36 -28z"/>
<path d="M1595 7303 c-27 -40 -34 -71 -9 -38 20 26 46 75 40 75 -3 0 -17 -17
-31 -37z"/>
<path d="M6330 7295 c6 -8 48 -28 91 -45 120 -46 289 -83 258 -56 -6 5 -343
116 -353 116 -5 0 -3 -7 4 -15z"/>
<path d="M2666 7134 c-9 -24 -7 -28 9 -14 17 14 20 30 6 30 -5 0 -12 -7 -15
-16z"/>
<path d="M8621 7023 c0 -4 4 -17 9 -28 8 -19 9 -19 9 2 1 12 -3 25 -9 28 -5 3
-10 3 -9 -2z"/>
<path d="M8288 6742 c-23 -27 -58 -88 -58 -101 0 -7 20 5 45 26 29 24 45 45
45 60 0 29 -14 36 -32 15z"/>
<path d="M1141 6588 c-5 -13 -25 -58 -45 -102 -36 -79 -43 -106 -28 -106 10 0
80 158 89 200 7 35 -4 40 -16 8z"/>
<path d="M8775 6291 c-22 -10 -76 -30 -120 -45 -81 -27 -160 -65 -138 -66 27
-1 289 94 308 111 26 25 4 25 -50 0z"/>
<path d="M8615 6106 c-38 -12 -83 -30 -100 -40 l-30 -17 44 7 c51 7 135 35
177 58 l29 15 -25 0 c-14 0 -56 -10 -95 -23z"/>
<path d="M8500 5820 c-21 -7 -17 -8 20 -9 25 0 52 4 60 9 19 12 -42 12 -80 0z"/>
<path d="M8400 5810 c0 -5 17 -10 38 -10 27 0 33 3 22 10 -20 13 -60 13 -60 0z"/>
<path d="M5030 5759 c-122 -21 -243 -100 -313 -206 -69 -104 -80 -147 -82
-298 l-2 -130 -53 -130 c-29 -71 -104 -238 -167 -370 -209 -437 -306 -658
-495 -1130 -142 -356 -207 -508 -299 -708 -38 -82 -69 -160 -69 -173 0 -36
-22 -39 -80 -9 -28 14 -64 25 -78 23 -23 -2 -28 -9 -30 -37 l-3 -34 -130 7
c-207 10 -387 42 -543 96 -69 23 -116 26 -116 7 0 -22 99 -157 156 -214 52
-52 200 -155 286 -199 128 -65 385 -144 469 -144 21 0 39 -1 39 -3 0 -2 -11
-32 -25 -66 -14 -34 -23 -71 -20 -81 4 -12 46 -32 139 -64 74 -25 140 -46 148
-46 8 0 63 57 123 126 155 178 155 178 155 244 0 46 13 90 74 245 41 105 81
206 89 225 8 19 13 40 10 46 -6 16 45 127 55 120 5 -3 26 36 47 87 137 331
211 517 275 697 165 466 406 1130 412 1136 8 7 170 14 194 8 16 -4 105 -131
334 -477 172 -260 328 -497 349 -527 29 -44 42 -56 66 -58 19 -2 40 -15 57
-34 33 -38 29 -47 -9 -21 -49 34 -56 37 -47 20 32 -57 330 -484 336 -481 10 7
48 -52 48 -74 0 -11 53 -112 119 -224 l118 -203 -31 -9 c-59 -16 -63 -18 -36
-25 l25 -7 -28 -27 c-27 -28 -47 -28 -47 -1 0 8 -4 14 -10 14 -22 0 -10 -47
15 -58 14 -6 25 -15 25 -19 0 -35 -182 -248 -300 -351 -41 -36 -117 -96 -168
-134 -51 -38 -96 -76 -99 -84 -3 -9 2 -23 11 -32 14 -14 39 -17 164 -17 223 1
358 41 557 169 107 69 159 117 217 202 23 35 45 64 48 64 4 0 20 -20 38 -45
17 -25 37 -45 43 -45 6 0 64 32 130 71 141 85 134 62 88 290 -26 132 -35 158
-59 184 -15 17 -36 48 -47 70 -10 22 -63 96 -117 165 -113 144 -223 297 -425
595 -133 196 -175 253 -157 215 14 -29 -83 85 -104 123 -32 57 -18 45 40 -33
29 -38 54 -70 57 -70 28 0 -731 1159 -832 1272 -45 49 -52 64 -69 144 -21 100
-51 173 -105 256 -98 151 -206 203 -361 177z m191 -59 c73 -37 148 -120 198
-220 51 -103 65 -170 58 -295 -9 -182 -51 -257 -180 -320 -83 -40 -226 -71
-281 -61 -53 10 -249 146 -234 162 4 4 14 2 22 -5 11 -9 15 -8 20 5 11 28 6
34 -23 28 -24 -5 -35 -1 -55 21 -94 102 -111 314 -35 442 51 84 152 197 199
221 45 22 101 32 70 12 -20 -13 -10 -12 31 2 19 6 44 22 56 34 19 21 25 22 60
12 21 -6 63 -23 94 -38z m658 -987 c23 -35 40 -63 37 -63 -6 0 -126 168 -126
176 0 9 44 -47 89 -113z m-9 -68 c0 -5 -16 7 -35 27 -19 21 -35 43 -35 50 1
15 70 -62 70 -77z m-975 -117 c-17 -64 -44 -132 -50 -126 -3 3 9 46 26 97 34
101 46 117 24 29z m1061 -124 c36 -52 64 -97 61 -100 -3 -3 -32 34 -64 83 -71
105 -76 113 -69 113 3 0 35 -43 72 -96z m-228 -50 c24 -36 42 -68 39 -70 -2
-2 -22 22 -43 53 -55 81 -56 83 -47 83 4 0 27 -30 51 -66z m-17 -96 c5 -10 7
-18 5 -18 -7 0 -106 147 -106 157 0 7 84 -108 101 -139z m375 -190 c39 -54
127 -219 120 -225 -7 -7 -43 51 -49 78 -4 14 -28 59 -55 100 -62 95 -64 99
-59 99 3 0 22 -24 43 -52z m276 -230 c64 -98 70 -108 64 -108 -6 0 -106 145
-106 155 0 12 9 2 42 -47z m2 -105 c36 -51 66 -95 66 -98 0 -29 -57 45 -130
170 -34 58 -12 33 64 -72z m-144 -2 c0 14 9 2 50 -65 21 -35 22 -39 6 -33 -15
6 -17 3 -13 -13 12 -45 -20 -12 -58 62 -30 58 -32 78 -5 53 15 -13 20 -15 20
-4z m-21 -123 c12 -21 20 -38 17 -38 -9 0 -86 121 -86 134 0 11 27 -27 69 -96z
m-17 -111 c11 -22 18 -41 15 -43 -5 -5 -87 110 -87 122 0 16 53 -43 72 -79z
m472 -63 c43 -69 76 -127 73 -130 -4 -5 -167 237 -167 249 0 25 26 -8 94 -119z
m-54 -14 c22 -33 37 -60 33 -60 -4 0 -17 15 -29 33 -11 17 -29 44 -38 60 -36
54 -6 26 34 -33z m-85 -14 c20 -32 32 -55 25 -51 -19 12 -70 87 -70 103 0 19
0 19 45 -52z m-2259 -152 c-30 -60 -55 -106 -55 -102 -1 11 102 219 106 214 2
-2 -21 -53 -51 -112z m2370 -10 c25 -41 44 -77 42 -80 -3 -2 -22 24 -43 58
-21 35 -46 74 -54 88 -9 13 -11 21 -4 17 7 -4 33 -41 59 -83z m-290 -25 c19
-40 20 -49 8 -38 -18 14 -44 69 -44 90 0 19 10 4 36 -52z m-2471 -121 c-9 -32
-128 -278 -132 -274 -4 4 128 296 134 296 3 0 2 -10 -2 -22z m2839 -80 c10
-15 14 -28 9 -28 -4 0 -21 24 -36 53 -29 52 -7 33 27 -25z m-2793 -44 c-12
-26 -23 -45 -26 -42 -3 2 5 28 17 57 13 29 24 48 26 42 2 -5 -6 -31 -17 -57z
m257 -57 c-17 -43 -36 -77 -40 -77 -9 0 4 34 43 112 35 72 33 51 -3 -35z
m-217 -61 c-17 -35 -31 -74 -31 -87 0 -21 -58 -124 -66 -116 -2 2 19 57 47
123 28 65 55 130 61 144 6 14 12 20 15 13 2 -7 -9 -41 -26 -77z m-495 -277 c6
-10 -36 -12 -60 -3 -9 3 -14 9 -11 13 6 10 64 1 71 -10z m3045 -126 c-9 -12
-19 -23 -23 -23 -12 0 -10 38 3 61 10 20 11 20 24 3 11 -15 10 -22 -4 -41z"/>
<path d="M5055 5545 c-5 -2 -22 -6 -36 -9 -15 -3 -54 -26 -87 -50 -120 -89
-147 -191 -83 -320 19 -38 47 -77 66 -92 90 -68 234 -66 308 4 50 47 74 197
47 294 -15 51 -69 129 -105 149 -30 18 -92 31 -110 24z"/>
<path d="M5431 5329 c11 -34 19 -92 20 -132 0 -59 2 -68 11 -47 15 39 4 149
-21 198 -12 23 -23 42 -25 42 -2 0 5 -27 15 -61z"/>
<path d="M4721 5313 c-6 -21 -10 -54 -9 -73 1 -34 1 -34 6 -5 4 26 5 28 12 10
6 -14 9 0 9 43 1 34 -1 62 -4 62 -2 0 -9 -17 -14 -37z"/>
<path d="M8821 5380 c0 -36 4 -72 9 -80 12 -19 12 96 0 125 -6 14 -9 0 -9 -45z"/>
<path d="M8611 5344 c-6 -15 -9 -36 -5 -47 6 -20 7 -20 20 4 7 13 13 32 14 41
0 28 -16 29 -29 2z"/>
<path d="M8307 5151 c-5 -12 -8 -38 -7 -57 1 -19 2 -46 2 -61 0 -41 -29 -282
-47 -397 -8 -55 -14 -104 -12 -110 9 -24 49 216 67 394 13 129 11 271 -3 231z"/>
<path d="M7438 5088 l-23 -23 90 -6 c64 -5 133 -20 238 -51 81 -25 147 -42
147 -37 0 4 -4 10 -9 14 -12 7 -400 125 -412 125 -5 0 -19 -10 -31 -22z"/>
<path d="M1400 4911 c-23 -7 -22 -8 15 -14 61 -10 290 -26 481 -33 175 -7 214
-1 214 31 0 18 -23 19 -52 4 -19 -10 -186 -6 -558 16 -41 2 -86 1 -100 -4z"/>
<path d="M1053 4797 c-67 -7 -125 -15 -129 -20 -4 -4 -2 -18 4 -32 7 -14 12
-39 12 -54 0 -16 9 -40 20 -54 25 -31 25 -39 1 -79 -11 -17 -18 -35 -15 -40 8
-13 92 -9 304 12 107 11 236 20 285 20 81 0 159 11 171 23 3 2 7 27 10 54 7
55 -20 124 -55 143 -11 5 -100 14 -198 20 -98 5 -203 12 -233 14 -30 2 -110
-1 -177 -7z"/>
<path d="M7356 4781 c14 -15 695 -313 701 -308 2 3 -15 17 -39 30 -49 29 -540
252 -601 273 -46 16 -76 19 -61 5z"/>
<path d="M8231 4494 c0 -11 3 -14 6 -6 3 7 2 16 -1 19 -3 4 -6 -2 -5 -13z"/>
<path d="M8100 4456 c0 -2 9 -6 20 -9 11 -3 18 -1 14 4 -5 9 -34 13 -34 5z"/>
<path d="M8696 4408 c-90 -328 -113 -396 -188 -566 -45 -103 -55 -143 -28
-116 13 13 91 174 123 254 25 63 137 446 137 469 0 6 -7 11 -15 11 -9 0 -20
-19 -29 -52z"/>
<path d="M8205 4398 c-3 -13 -12 -54 -21 -93 -8 -38 -34 -125 -56 -193 -38
-115 -43 -151 -17 -125 6 6 34 94 63 194 42 152 55 185 74 195 21 10 21 11 4
27 -25 23 -41 21 -47 -5z"/>
<path d="M8803 4263 c-12 -26 -24 -59 -28 -73 -4 -14 -36 -94 -71 -177 -35
-84 -64 -157 -64 -163 0 -17 17 -11 32 13 19 30 162 436 156 443 -3 2 -14 -17
-25 -43z"/>
<path d="M9073 4021 c-7 -12 -13 -31 -13 -43 0 -20 1 -21 16 -6 9 8 14 27 12
42 -3 26 -3 26 -15 7z"/>
<path d="M8492 3668 c-50 -95 -117 -220 -148 -278 -46 -86 -51 -101 -29 -80
39 36 156 208 174 255 24 67 60 108 86 101 18 -5 25 0 35 23 17 43 10 65 -25
71 -20 4 -26 8 -18 13 20 12 32 42 24 55 -4 7 -43 -56 -99 -160z"/>
<path d="M1593 3588 c22 -59 87 -271 87 -285 0 -10 8 -31 17 -48 9 -16 58
-111 110 -210 81 -154 94 -174 90 -137 -3 23 -23 80 -45 125 -57 118 -59 127
-28 127 39 0 32 25 -16 57 -60 40 -81 76 -129 221 -23 70 -48 135 -57 145 -17
20 -36 23 -29 5z"/>
<path d="M8494 3522 c-21 -35 -67 -107 -102 -159 -35 -53 -61 -98 -58 -100 12
-12 35 8 61 54 15 26 40 64 55 83 36 46 92 158 87 173 -2 7 -22 -16 -43 -51z"/>
<path d="M7875 2666 c22 -19 46 -35 54 -36 22 0 -2 23 -51 49 l-43 23 40 -36z"/>
<path d="M8020 2550 c0 -12 141 -130 155 -129 11 0 -136 139 -147 139 -5 0 -8
-4 -8 -10z"/>
<path d="M2380 2539 c0 -17 149 -182 173 -192 38 -15 29 3 -44 83 -78 86 -129
130 -129 109z"/>
<path d="M2390 1882 c0 -4 33 -24 73 -44 58 -28 74 -33 84 -23 14 15 15 14
-89 50 -38 13 -68 21 -68 17z"/>
<path d="M5359 1748 c-33 -62 31 -771 78 -862 12 -24 18 -27 41 -21 15 4 55 7
89 6 80 -2 130 18 139 55 4 16 -11 174 -34 363 -23 185 -45 365 -48 399 -4 35
-12 65 -18 67 -6 2 -62 5 -125 7 -98 3 -114 1 -122 -14z m202 -63 c1 -17 -35
-35 -50 -26 -23 14 -5 43 24 39 14 -2 26 -7 26 -13z m88 -676 c7 -21 7 -37 0
-50 -17 -33 -29 -21 -29 31 0 57 13 65 29 19z"/>
<path d="M5892 1216 c2 -112 7 -208 11 -213 5 -4 21 6 36 23 l28 31 -5 164
c-5 173 -12 199 -54 199 -18 0 -19 -9 -16 -204z"/>
</g>
</svg>
